<svg width="32" height="32" viewBox="0 0 32 32" fill="none" xmlns="http://www.w3.org/2000/svg">
<path d="M21.3333 9.33333C21.3333 8.97971 21.4737 8.64057 21.7238 8.39052C21.9738 8.14048 22.313 8 22.6666 8C23.0202 8 23.3593 8.14048 23.6094 8.39052C23.8594 8.64057 23.9999 8.97971 23.9999 9.33333C23.9999 9.68696 23.8594 10.0261 23.6094 10.2761C23.3593 10.5262 23.0202 10.6667 22.6666 10.6667C22.313 10.6667 21.9738 10.5262 21.7238 10.2761C21.4737 10.0261 21.3333 9.68696 21.3333 9.33333Z" fill="#F47219"/>
<path fill-rule="evenodd" clip-rule="evenodd" d="M16.0001 9.6665C14.3204 9.6665 12.7095 10.3338 11.5217 11.5215C10.334 12.7092 9.66675 14.3201 9.66675 15.9998C9.66675 17.6795 10.334 19.2905 11.5217 20.4782C12.7095 21.6659 14.3204 22.3332 16.0001 22.3332C17.6798 22.3332 19.2907 21.6659 20.4784 20.4782C21.6662 19.2905 22.3334 17.6795 22.3334 15.9998C22.3334 14.3201 21.6662 12.7092 20.4784 11.5215C19.2907 10.3338 17.6798 9.6665 16.0001 9.6665ZM11.6667 15.9998C11.6667 14.8506 12.1233 13.7484 12.936 12.9357C13.7486 12.1231 14.8508 11.6665 16.0001 11.6665C17.1494 11.6665 18.2516 12.1231 19.0642 12.9357C19.8769 13.7484 20.3334 14.8506 20.3334 15.9998C20.3334 17.1491 19.8769 18.2513 19.0642 19.064C18.2516 19.8766 17.1494 20.3332 16.0001 20.3332C14.8508 20.3332 13.7486 19.8766 12.936 19.064C12.1233 18.2513 11.6667 17.1491 11.6667 15.9998Z" fill="#F47219"/>
<path fill-rule="evenodd" clip-rule="evenodd" d="M23.0106 3.77722C18.3511 3.26046 13.6488 3.26046 8.98927 3.77722C6.3066 4.07722 4.13994 6.19056 3.82527 8.88656C3.27341 13.6127 3.27341 18.3871 3.82527 23.1132C4.13994 25.8092 6.30527 27.9226 8.98927 28.2226C13.6488 28.7382 18.351 28.7382 23.0106 28.2226C25.6933 27.9226 27.8599 25.8092 28.1746 23.1132C28.7265 18.3871 28.7265 13.6127 28.1746 8.88656C27.8599 6.19056 25.6946 4.07722 23.0106 3.77722ZM9.2106 5.76389C13.723 5.2635 18.2769 5.2635 22.7893 5.76389C24.5626 5.96389 25.9826 7.36256 26.1893 9.11989C26.7241 13.691 26.7241 18.3088 26.1893 22.8799C26.0824 23.7399 25.6887 24.5389 25.0717 25.1476C24.4548 25.7563 23.6507 26.1392 22.7893 26.2346C18.2769 26.7349 13.723 26.7349 9.2106 26.2346C8.34919 26.1392 7.54507 25.7563 6.92814 25.1476C6.31121 24.5389 5.9175 23.7399 5.8106 22.8799C5.27575 18.3088 5.27575 13.691 5.8106 9.11989C5.9175 8.25984 6.31121 7.46093 6.92814 6.85223C7.54507 6.24352 8.34919 5.85923 9.2106 5.76389Z" fill="#F47219"/>
</svg>
