<?xml version="1.0" encoding="utf-8"?>
<!-- Generator: Adobe Illustrator 27.0.0, SVG Export Plug-In . SVG Version: 6.00 Build 0)  -->
<svg version="1.1" id="Layer_1" xmlns="http://www.w3.org/2000/svg" xmlns:xlink="http://www.w3.org/1999/xlink" x="0px" y="0px"
	 viewBox="0 0 32 32" style="enable-background:new 0 0 32 32;" xml:space="preserve">
<style type="text/css">
	.st0{fill:#5F44E2;}
	.st1{fill:#3B2F8E;}
	.st2{fill:#FFFFFF;}
</style>
<g>
	<g>
		<g>
			<path class="st0" d="M4.84,28.45c-0.87,0-1.57-0.71-1.57-1.57V7.97c0-0.87,0.7-1.57,1.57-1.57h22.33c0.87,0,1.57,0.7,1.57,1.57
				v18.91c0,0.87-0.71,1.57-1.57,1.57H4.84z"/>
			<path class="st1" d="M27.16,7.28c0.38,0,0.69,0.31,0.69,0.69v18.91c0,0.38-0.31,0.69-0.69,0.69H4.84c-0.38,0-0.69-0.31-0.69-0.69
				V7.97c0-0.38,0.31-0.69,0.69-0.69H27.16 M27.16,5.51H4.84c-1.36,0-2.46,1.1-2.46,2.46v18.91c0,1.36,1.1,2.46,2.46,2.46h22.33
				c1.36,0,2.46-1.1,2.46-2.46V7.97C29.62,6.61,28.52,5.51,27.16,5.51L27.16,5.51z"/>
		</g>
		<g>
			<g>
				<path class="st1" d="M10.22,5.52h2.33c0.14,0,0.26-0.12,0.26-0.26V2.93c0-0.14-0.12-0.26-0.26-0.26h-2.33
					c-0.14,0-0.26,0.12-0.26,0.26v2.33C9.96,5.41,10.08,5.52,10.22,5.52z"/>
				<path class="st2" d="M10.42,8.38h1.93c0.26,0,0.46-0.21,0.46-0.46V5.98c0-0.26-0.21-0.46-0.46-0.46h-1.93
					c-0.26,0-0.46,0.21-0.46,0.46v1.93C9.96,8.17,10.17,8.38,10.42,8.38z"/>
			</g>
			<g>
				<path class="st1" d="M19.45,5.52h2.33c0.14,0,0.26-0.12,0.26-0.26V2.93c0-0.14-0.12-0.26-0.26-0.26h-2.33
					c-0.14,0-0.26,0.12-0.26,0.26v2.33C19.19,5.41,19.3,5.52,19.45,5.52z"/>
				<path class="st2" d="M19.65,8.38h1.93c0.26,0,0.46-0.21,0.46-0.46V5.98c0-0.26-0.21-0.46-0.46-0.46h-1.93
					c-0.26,0-0.46,0.21-0.46,0.46v1.93C19.19,8.17,19.39,8.38,19.65,8.38z"/>
			</g>
		</g>
	</g>
	<path class="st2" d="M21.83,14.25c0.31,0.44,0.21,1.04-0.23,1.35l-2.9,2.05l0.35,6.08l-1.05,0.75l-1.66-5.15l-2.9,2.06l-0.04,1.61
		l-0.8,0.56l-0.78-2.21l-1.84-1.47l0.79-0.57l1.55,0.51l2.88-2.04l-4.31-3.29l1.06-0.74l5.62,2.35l2.9-2.05
		C20.9,13.71,21.54,13.82,21.83,14.25z"/>
</g>
</svg>
