<?xml version="1.0" encoding="utf-8"?>
<!-- Generator: Adobe Illustrator 27.0.0, SVG Export Plug-In . SVG Version: 6.00 Build 0)  -->
<svg version="1.1" id="Layer_1" xmlns="http://www.w3.org/2000/svg" xmlns:xlink="http://www.w3.org/1999/xlink" x="0px" y="0px"
	 viewBox="0 0 32 32" style="enable-background:new 0 0 32 32;" xml:space="preserve">
<style type="text/css">
	.st0{fill:#5F44E2;}
</style>
<g>
	<path class="st0" d="M8.32,12.18h19.32c0.45,0,0.81-0.36,0.81-0.81V4.96c0-0.45-0.36-0.81-0.81-0.81H8.32
		c-0.19,0-0.37,0.06-0.51,0.18l-3.97,3.2c-0.4,0.33-0.4,0.94,0,1.27L7.81,12C7.96,12.12,8.14,12.18,8.32,12.18z"/>
	<path class="st0" d="M23.68,14.57H4.35c-0.45,0-0.81,0.36-0.81,0.81v6.41c0,0.45,0.36,0.81,0.81,0.81h19.32
		c0.19,0,0.37-0.06,0.51-0.18l3.97-3.2c0.4-0.33,0.4-0.94,0-1.27l-3.97-3.2C24.04,14.64,23.86,14.57,23.68,14.57z"/>
	<path class="st0" d="M13.86,29.98h4.28c0.21,0,0.38-0.17,0.38-0.38V2.4c0-0.21-0.17-0.38-0.38-0.38h-4.28
		c-0.21,0-0.38,0.17-0.38,0.38v27.2C13.48,29.81,13.65,29.98,13.86,29.98z"/>
	<path class="st0" d="M8.47,29.98h15.05c0.21,0,0.38-0.17,0.38-0.38v-1.67c0-0.21-0.17-0.38-0.38-0.38H8.47
		c-0.21,0-0.38,0.17-0.38,0.38v1.67C8.09,29.81,8.26,29.98,8.47,29.98z"/>
</g>
</svg>
