<?xml version="1.0" encoding="utf-8"?>
<!-- Generator: Adobe Illustrator 27.0.0, SVG Export Plug-In . SVG Version: 6.00 Build 0)  -->
<svg version="1.1" id="Layer_1" xmlns="http://www.w3.org/2000/svg" xmlns:xlink="http://www.w3.org/1999/xlink" x="0px" y="0px"
	 viewBox="0 0 32 32" style="enable-background:new 0 0 32 32;" xml:space="preserve">
<style type="text/css">
	.st0{fill:#F46F14;}
</style>
<g>
	<path class="st0" d="M2.03,2.79v6.06c0,0.47,0.38,0.85,0.85,0.85h6.36v19.22c0,0.47,0.38,0.85,0.85,0.85h1.5
		c0.47,0,0.85-0.38,0.85-0.85V9.69V2.79c0-0.47-0.38-0.85-0.85-0.85H2.88C2.41,1.94,2.03,2.32,2.03,2.79z"/>
	<g>
		<circle class="st0" cx="19.62" cy="7.32" r="3.43"/>
		<path class="st0" d="M22.68,20.4h-6.16c-0.34,0-0.62-0.28-0.62-0.62v-8.42c0-0.34,0.28-0.62,0.62-0.62h6.16
			c0.34,0,0.62,0.28,0.62,0.62v8.42C23.3,20.13,23.02,20.4,22.68,20.4z"/>
		<path class="st0" d="M18.45,30.06h-2.21c-0.19,0-0.34-0.15-0.34-0.34v-8.15c0-0.19,0.15-0.34,0.34-0.34h2.21
			c0.19,0,0.34,0.15,0.34,0.34v8.15C18.79,29.91,18.64,30.06,18.45,30.06z"/>
		<path class="st0" d="M22.95,30.06h-2.21c-0.19,0-0.34-0.15-0.34-0.34v-8.15c0-0.19,0.15-0.34,0.34-0.34h2.21
			c0.19,0,0.34,0.15,0.34,0.34v8.15C23.3,29.91,23.14,30.06,22.95,30.06z"/>
		<path class="st0" d="M21.98,15.07l-1.11-1.92c-0.1-0.16-0.04-0.38,0.13-0.47l7.35-4.24c0.16-0.1,0.38-0.04,0.47,0.13l1.11,1.92
			c0.1,0.16,0.04,0.38-0.13,0.47l-7.35,4.24C22.29,15.29,22.08,15.23,21.98,15.07z"/>
		<path class="st0" d="M17.74,15.51l1.11-1.92c0.1-0.16,0.04-0.38-0.13-0.47l-7.35-4.24C11.21,8.79,11,8.84,10.9,9.01L9.8,10.93
			c-0.1,0.16-0.04,0.38,0.13,0.47l7.35,4.24C17.44,15.74,17.65,15.68,17.74,15.51z"/>
	</g>
</g>
</svg>
