<svg width="572" height="418" viewBox="0 0 572 418" fill="none" xmlns="http://www.w3.org/2000/svg">
<rect x="33" y="52" width="107" height="104" rx="12" fill="#D9D9D9"/>
<rect x="144" y="57" width="112" height="99" rx="12" fill="#D9D9D9"/>
<rect x="407" y="57" width="96" height="99" rx="12" fill="#D9D9D9"/>
<rect x="507" y="32" width="65" height="124" rx="12" fill="#D9D9D9"/>
<rect x="520" y="166" width="52" height="100" rx="12" fill="#D9D9D9"/>
<rect x="293" y="160" width="223" height="112" rx="12" fill="#D9D9D9"/>
<rect x="184" y="160" width="105" height="112" rx="12" fill="#D9D9D9"/>
<rect y="160" width="180" height="112" rx="12" fill="#D9D9D9"/>
<rect x="76" y="276" width="116" height="138" rx="12" fill="#D9D9D9"/>
<rect x="198" y="281" width="137" height="121" rx="12" fill="#D9D9D9"/>
<rect x="463" y="279" width="90" height="105" rx="12" fill="#D9D9D9"/>
<rect x="457" y="277" width="85" height="119" rx="12" transform="rotate(90 457 277)" fill="#D9D9D9"/>
<rect x="458" y="367" width="51" height="119" rx="12" transform="rotate(90 458 367)" fill="#D9D9D9"/>
<rect x="3" y="345" width="53" height="60" rx="12" fill="#D9D9D9"/>
<rect x="19" y="279" width="53" height="60" rx="12" fill="#D9D9D9"/>
<rect x="260" width="143" height="156" rx="12" fill="#D9D9D9"/>
</svg>
