<svg width="170" height="40" viewBox="0 0 170 40" fill="none" xmlns="http://www.w3.org/2000/svg">
<circle cx="20" cy="20" r="20" fill="#F47219"/>
<path d="M28.5599 11.91C29.1499 12.5 29.1499 13.45 28.5599 14.03L24.6699 17.92L26.7899 27.11L25.3799 28.53L21.4999 21.1L17.5999 25L17.9599 27.47L16.8899 28.53L15.1299 25.35L11.9399 23.58L12.9999 22.5L15.4999 22.87L19.3699 19L11.9399 15.09L13.3599 13.68L22.5499 15.8L26.4399 11.91C26.9999 11.33 27.9999 11.33 28.5599 11.91Z" fill="white"/>
<path d="M60.474 12.056V15.026H56.382V27.5H52.62V15.026H48.528V12.056H60.474ZM66.124 17.424C66.564 16.7053 67.114 16.1407 67.774 15.73C68.4487 15.3047 69.182 15.092 69.974 15.092V19.074H68.94C68.0014 19.074 67.2974 19.2793 66.828 19.69C66.3587 20.086 66.124 20.79 66.124 21.802V27.5H62.362V15.224H66.124V17.424ZM71.0242 21.34C71.0242 20.0787 71.2589 18.9713 71.7282 18.018C72.2122 17.0647 72.8649 16.3313 73.6862 15.818C74.5075 15.3047 75.4242 15.048 76.4362 15.048C77.3015 15.048 78.0569 15.224 78.7022 15.576C79.3622 15.928 79.8682 16.39 80.2202 16.962V15.224H83.9822V27.5H80.2202V25.762C79.8535 26.334 79.3402 26.796 78.6802 27.148C78.0349 27.5 77.2795 27.676 76.4142 27.676C75.4169 27.676 74.5075 27.4193 73.6862 26.906C72.8649 26.378 72.2122 25.6373 71.7282 24.684C71.2589 23.716 71.0242 22.6013 71.0242 21.34ZM80.2202 21.362C80.2202 20.4233 79.9562 19.6827 79.4282 19.14C78.9149 18.5973 78.2842 18.326 77.5362 18.326C76.7882 18.326 76.1502 18.5973 75.6222 19.14C75.1089 19.668 74.8522 20.4013 74.8522 21.34C74.8522 22.2787 75.1089 23.0267 75.6222 23.584C76.1502 24.1267 76.7882 24.398 77.5362 24.398C78.2842 24.398 78.9149 24.1267 79.4282 23.584C79.9562 23.0413 80.2202 22.3007 80.2202 21.362ZM92.2258 23.98L94.8878 15.224H98.9138L94.5578 27.5H89.8938L85.5378 15.224H89.5638L92.2258 23.98ZM112.047 21.142C112.047 21.4793 112.025 21.8387 111.981 22.22H103.467C103.526 22.9973 103.768 23.5913 104.193 24.002C104.619 24.4127 105.154 24.618 105.799 24.618C106.738 24.618 107.391 24.222 107.757 23.43H111.761C111.556 24.2367 111.182 24.9627 110.639 25.608C110.111 26.2533 109.444 26.7593 108.637 27.126C107.831 27.4927 106.929 27.676 105.931 27.676C104.729 27.676 103.658 27.4193 102.719 26.906C101.781 26.3927 101.047 25.6593 100.519 24.706C99.9913 23.7527 99.7273 22.638 99.7273 21.362C99.7273 20.086 99.984 18.9713 100.497 18.018C101.025 17.0647 101.759 16.3313 102.697 15.818C103.636 15.3047 104.714 15.048 105.931 15.048C107.119 15.048 108.175 15.2973 109.099 15.796C110.023 16.2947 110.742 17.006 111.255 17.93C111.783 18.854 112.047 19.9247 112.047 21.142ZM108.197 20.306C108.197 19.602 107.977 19.052 107.537 18.656C107.097 18.26 106.547 18.062 105.887 18.062C105.242 18.062 104.699 18.26 104.259 18.656C103.834 19.0373 103.57 19.5873 103.467 20.306H108.197ZM117.794 11.22V27.5H114.032V11.22H117.794ZM126.108 27.676C124.906 27.676 123.82 27.4193 122.852 26.906C121.899 26.3927 121.144 25.6593 120.586 24.706C120.044 23.7527 119.772 22.638 119.772 21.362C119.772 20.1007 120.051 18.9933 120.608 18.04C121.166 17.072 121.928 16.3313 122.896 15.818C123.864 15.3047 124.95 15.048 126.152 15.048C127.355 15.048 128.44 15.3047 129.408 15.818C130.376 16.3313 131.139 17.072 131.696 18.04C132.254 18.9933 132.532 20.1007 132.532 21.362C132.532 22.6233 132.246 23.738 131.674 24.706C131.117 25.6593 130.347 26.3927 129.364 26.906C128.396 27.4193 127.311 27.676 126.108 27.676ZM126.108 24.442C126.827 24.442 127.436 24.178 127.934 23.65C128.448 23.1073 128.704 22.3447 128.704 21.362C128.704 20.3793 128.455 19.624 127.956 19.096C127.472 18.5533 126.871 18.282 126.152 18.282C125.419 18.282 124.81 18.546 124.326 19.074C123.842 19.602 123.6 20.3647 123.6 21.362C123.6 22.3447 123.835 23.1073 124.304 23.65C124.788 24.178 125.39 24.442 126.108 24.442ZM138.29 16.962C138.657 16.39 139.163 15.928 139.808 15.576C140.453 15.224 141.209 15.048 142.074 15.048C143.086 15.048 144.003 15.3047 144.824 15.818C145.645 16.3313 146.291 17.0647 146.76 18.018C147.244 18.9713 147.486 20.0787 147.486 21.34C147.486 22.6013 147.244 23.716 146.76 24.684C146.291 25.6373 145.645 26.378 144.824 26.906C144.003 27.4193 143.086 27.676 142.074 27.676C141.223 27.676 140.468 27.5 139.808 27.148C139.163 26.796 138.657 26.3413 138.29 25.784V33.352H134.528V15.224H138.29V16.962ZM143.658 21.34C143.658 20.4013 143.394 19.668 142.866 19.14C142.353 18.5973 141.715 18.326 140.952 18.326C140.204 18.326 139.566 18.5973 139.038 19.14C138.525 19.6827 138.268 20.4233 138.268 21.362C138.268 22.3007 138.525 23.0413 139.038 23.584C139.566 24.1267 140.204 24.398 140.952 24.398C141.7 24.398 142.338 24.1267 142.866 23.584C143.394 23.0267 143.658 22.2787 143.658 21.34ZM151.352 13.948C150.692 13.948 150.149 13.7573 149.724 13.376C149.313 12.98 149.108 12.496 149.108 11.924C149.108 11.3373 149.313 10.8533 149.724 10.472C150.149 10.076 150.692 9.878 151.352 9.878C151.997 9.878 152.525 10.076 152.936 10.472C153.361 10.8533 153.574 11.3373 153.574 11.924C153.574 12.496 153.361 12.98 152.936 13.376C152.525 13.7573 151.997 13.948 151.352 13.948ZM153.222 15.224V27.5H149.46V15.224H153.222ZM155.2 21.34C155.2 20.0787 155.435 18.9713 155.904 18.018C156.388 17.0647 157.041 16.3313 157.862 15.818C158.683 15.3047 159.6 15.048 160.612 15.048C161.477 15.048 162.233 15.224 162.878 15.576C163.538 15.928 164.044 16.39 164.396 16.962V15.224H168.158V27.5H164.396V25.762C164.029 26.334 163.516 26.796 162.856 27.148C162.211 27.5 161.455 27.676 160.59 27.676C159.593 27.676 158.683 27.4193 157.862 26.906C157.041 26.378 156.388 25.6373 155.904 24.684C155.435 23.716 155.2 22.6013 155.2 21.34ZM164.396 21.362C164.396 20.4233 164.132 19.6827 163.604 19.14C163.091 18.5973 162.46 18.326 161.712 18.326C160.964 18.326 160.326 18.5973 159.798 19.14C159.285 19.668 159.028 20.4013 159.028 21.34C159.028 22.2787 159.285 23.0267 159.798 23.584C160.326 24.1267 160.964 24.398 161.712 24.398C162.46 24.398 163.091 24.1267 163.604 23.584C164.132 23.0413 164.396 22.3007 164.396 21.362Z" fill="#070707"/>
</svg>
